<?xml version="1.0" encoding="UTF-8" standalone="no"?>
<svg
   viewBox="0 0 662.01219 185.34258"
   width="662.01221"
   height="185.34259"
   version="1.1"
   id="svg84"
   xmlns="http://www.w3.org/2000/svg"
   xmlns:svg="http://www.w3.org/2000/svg">
  <defs
     id="defs84" />
  <style
     id="style1">.t-dark { fill: #0B2A51; }
.t-teal { fill: #00A3A1; }
.t-orange { fill: #F29C38; }
.s-dark { stroke: #0B2A51; }
.s-teal { stroke: #00A3A1; }
.main-font { font-family: 'Syntax', 'Segoe UI', 'Helvetica Neue', Arial, sans-serif; }
</style>
  <g
     id="bookshelves"
     transform="translate(20.320896,22.632269)">
    <g
       transform="translate(156)"
       id="g82">
      <g
         transform="translate(0,138.72998)"
         id="g81">
        <rect
           x="6"
           y="-31"
           width="6"
           height="31"
           class="t-dark"
           id="rect76" />
        <rect
           x="14"
           y="-26"
           width="5"
           height="26"
           class="t-teal"
           id="rect77" />
        <rect
           x="21"
           y="-29"
           width="6"
           height="29"
           class="t-dark"
           id="rect78" />
        <rect
           x="34.451237"
           y="-18.531559"
           width="6"
           height="29"
           class="t-orange"
           transform="rotate(-18)"
           id="rect79" />
        <rect
           x="48"
           y="-28"
           width="6"
           height="28"
           class="t-dark"
           id="rect80" />
        <rect
           x="56"
           y="-30"
           width="6"
           height="30"
           class="t-teal"
           id="rect81" />
      </g>
      <g
         transform="translate(0,103.72998)"
         id="g75">
        <rect
           x="6"
           y="-30"
           width="5"
           height="30"
           class="t-teal"
           id="rect70" />
        <rect
           x="13"
           y="-27"
           width="6"
           height="27"
           class="t-dark"
           id="rect71" />
        <rect
           x="21"
           y="-29"
           width="5"
           height="29"
           class="t-dark"
           id="rect72" />
        <rect
           x="34"
           y="-26"
           width="5"
           height="26"
           class="t-teal"
           id="rect73" />
        <rect
           x="41"
           y="-29"
           width="6"
           height="29"
           class="t-teal"
           id="rect74" />
        <rect
           x="53"
           y="-28"
           width="5"
           height="28"
           class="t-dark"
           id="rect75" />
      </g>
      <g
         transform="translate(0,68.72998)"
         id="g69">
        <rect
           x="6"
           y="-30"
           width="6"
           height="30"
           class="t-teal"
           id="rect64" />
        <rect
           x="14"
           y="-27"
           width="5"
           height="27"
           class="t-dark"
           id="rect65" />
        <rect
           x="22"
           y="-24"
           width="6"
           height="24"
           class="t-dark"
           id="rect66" />
        <rect
           x="32"
           y="-29"
           width="5"
           height="29"
           class="t-dark"
           id="rect67" />
        <rect
           x="44"
           y="-25"
           width="5"
           height="25"
           class="t-teal"
           id="rect68" />
        <rect
           x="52"
           y="-28"
           width="6"
           height="28"
           class="t-dark"
           id="rect69" />
      </g>
      <g
         transform="translate(0,33.72998)"
         id="g63">
        <rect
           x="6"
           y="-29"
           width="6"
           height="29"
           class="t-dark"
           id="rect58" />
        <rect
           x="14"
           y="-28"
           width="6"
           height="28"
           class="t-orange"
           transform="rotate(20,20,0)"
           id="rect59" />
        <rect
           x="30"
           y="-30"
           width="6"
           height="30"
           class="t-dark"
           id="rect60" />
        <rect
           x="38"
           y="-26"
           width="5"
           height="26"
           class="t-dark"
           id="rect61" />
        <rect
           x="46"
           y="-24"
           width="5"
           height="24"
           class="t-teal"
           id="rect62" />
        <rect
           x="54"
           y="-28"
           width="6"
           height="28"
           class="t-dark"
           id="rect63" />
      </g>
      <g
         id="g85"
         transform="translate(-156)">
        <line
           x1="157.42505"
           y1="105"
           x2="224.57495"
           y2="105"
           class="s-dark"
           stroke-width="3.02602"
           id="line57" />
        <line
           x1="157.42505"
           y1="70"
           x2="224.57495"
           y2="70"
           class="s-dark"
           stroke-width="3.02602"
           id="line56" />
        <line
           x1="157.54004"
           y1="35"
           x2="224.45996"
           y2="35"
           class="s-dark"
           stroke-width="3.02083"
           id="line55" />
        <line
           x1="-3"
           y1="142"
           x2="73"
           y2="142"
           class="s-dark"
           stroke-width="5"
           stroke-linecap="round"
           id="line58"
           transform="translate(156)" />
        <rect
           x="0"
           y="0"
           width="70"
           height="140"
           rx="2"
           fill="none"
           class="s-dark"
           stroke-width="4"
           id="rect55"
           transform="translate(156)" />
      </g>
    </g>
    <g
       transform="translate(78)"
       id="g55">
      <g
         transform="translate(0,138.66262)"
         id="g54">
        <rect
           x="6"
           y="-31"
           width="6"
           height="31"
           class="t-teal"
           id="rect49" />
        <rect
           x="14"
           y="-27"
           width="5"
           height="27"
           class="t-dark"
           id="rect50" />
        <rect
           x="21"
           y="-30"
           width="5"
           height="30"
           class="t-dark"
           id="rect51" />
        <rect
           x="27.206316"
           y="-40.912304"
           width="6"
           height="27"
           class="t-orange"
           transform="rotate(22)"
           id="rect52" />
        <rect
           x="46"
           y="-31"
           width="6"
           height="31"
           class="t-dark"
           id="rect53" />
        <rect
           x="54"
           y="-28"
           width="6"
           height="28"
           class="t-dark"
           id="rect54" />
      </g>
      <g
         transform="translate(0,103.66262)"
         id="g48">
        <rect
           x="6"
           y="-30"
           width="5"
           height="30"
           class="t-teal"
           id="rect43" />
        <rect
           x="13"
           y="-27"
           width="6"
           height="27"
           class="t-dark"
           id="rect44" />
        <rect
           x="21"
           y="-29"
           width="5"
           height="29"
           class="t-teal"
           id="rect45" />
        <rect
           x="36"
           y="-26"
           width="6"
           height="26"
           class="t-dark"
           id="rect46" />
        <rect
           x="44"
           y="-30"
           width="5"
           height="30"
           class="t-teal"
           id="rect47" />
        <rect
           x="52"
           y="-28"
           width="6"
           height="28"
           class="t-teal"
           id="rect48" />
      </g>
      <g
         transform="translate(0,68.662619)"
         id="g42">
        <rect
           x="6"
           y="-30"
           width="6"
           height="30"
           class="t-teal"
           id="rect37" />
        <rect
           x="14"
           y="-27"
           width="5"
           height="27"
           class="t-dark"
           id="rect38" />
        <rect
           x="23"
           y="-25"
           width="5"
           height="25"
           class="t-teal"
           id="rect39" />
        <rect
           x="38"
           y="-30"
           width="6"
           height="30"
           class="t-dark"
           id="rect40" />
        <rect
           x="46"
           y="-27"
           width="5"
           height="27"
           class="t-dark"
           id="rect41" />
        <rect
           x="54"
           y="-29"
           width="6"
           height="29"
           class="t-dark"
           id="rect42" />
      </g>
      <g
         transform="translate(0,33.662619)"
         id="g36">
        <rect
           x="6"
           y="-29"
           width="6"
           height="29"
           class="t-dark"
           id="rect31" />
        <rect
           x="14"
           y="-27"
           width="5"
           height="27"
           class="t-dark"
           id="rect32" />
        <rect
           x="23"
           y="-28"
           width="6"
           height="28"
           class="t-orange"
           transform="rotate(20,29,0)"
           id="rect33" />
        <rect
           x="40"
           y="-30"
           width="6"
           height="30"
           class="t-dark"
           id="rect34" />
        <rect
           x="48"
           y="-25"
           width="5"
           height="25"
           class="t-dark"
           id="rect35" />
        <rect
           x="56"
           y="-28"
           width="6"
           height="28"
           class="t-dark"
           id="rect36" />
      </g>
      <g
         id="g86">
        <line
           x1="1.4250541"
           y1="35"
           x2="68.574944"
           y2="35"
           class="s-dark"
           stroke-width="3.02602"
           id="line28" />
        <line
           x1="1.4250541"
           y1="70"
           x2="68.574944"
           y2="70"
           class="s-dark"
           stroke-width="3.02602"
           id="line29" />
        <line
           x1="1.5400432"
           y1="105"
           x2="68.459953"
           y2="105"
           class="s-dark"
           stroke-width="3.02083"
           id="line30" />
        <line
           x1="-3"
           y1="142"
           x2="73"
           y2="142"
           class="s-dark"
           stroke-width="5"
           stroke-linecap="round"
           id="line31" />
        <rect
           x="0"
           y="0"
           width="70"
           height="140"
           rx="2"
           fill="none"
           class="s-dark"
           stroke-width="4"
           id="rect28" />
      </g>
    </g>
    <g
       id="g28">
      <g
         transform="translate(0,33.662619)"
         id="g10">
        <rect
           x="6"
           y="-28"
           width="6"
           height="28"
           class="t-dark"
           id="rect4" />
        <rect
           x="14"
           y="-24"
           width="5"
           height="24"
           class="t-teal"
           id="rect5" />
        <rect
           x="21"
           y="-29"
           width="6"
           height="29"
           class="t-dark"
           id="rect6" />
        <rect
           x="29"
           y="-25"
           width="5"
           height="25"
           class="t-teal"
           id="rect7" />
        <rect
           x="36"
           y="-30"
           width="6"
           height="30"
           class="t-dark"
           id="rect8" />
        <rect
           x="44"
           y="-27"
           width="5"
           height="27"
           class="t-teal"
           id="rect9" />
        <rect
           x="51"
           y="-28"
           width="6"
           height="28"
           class="t-dark"
           id="rect10" />
      </g>
      <g
         transform="translate(0,68.662619)"
         id="g16">
        <rect
           x="8"
           y="-29"
           width="6"
           height="29"
           class="t-dark"
           id="rect11" />
        <rect
           x="16"
           y="-26"
           width="6"
           height="26"
           class="t-dark"
           id="rect12" />
        <rect
           x="24"
           y="-28"
           width="5"
           height="28"
           class="t-dark"
           id="rect13" />
        <rect
           x="32"
           y="-30"
           width="6"
           height="30"
           class="t-dark"
           id="rect14" />
        <rect
           x="42"
           y="-25"
           width="5"
           height="25"
           class="t-teal"
           id="rect15" />
        <rect
           x="50"
           y="-27"
           width="6"
           height="27"
           class="t-dark"
           id="rect16" />
      </g>
      <g
         transform="translate(0,103.66262)"
         id="g21">
        <rect
           x="6"
           y="-30"
           width="5"
           height="30"
           class="t-dark"
           id="rect17" />
        <rect
           x="15.324966"
           y="-35.516926"
           width="6"
           height="28"
           class="t-orange"
           transform="rotate(20)"
           id="rect18" />
        <rect
           x="32"
           y="-29"
           width="6"
           height="29"
           class="t-dark"
           id="rect19" />
        <rect
           x="40"
           y="-27"
           width="5"
           height="27"
           class="t-dark"
           id="rect20" />
        <rect
           x="48"
           y="-30"
           width="6"
           height="30"
           class="t-dark"
           id="rect21" />
      </g>
      <g
         transform="translate(0,138.5)"
         id="g27">
        <rect
           x="6"
           y="-31"
           width="6"
           height="31"
           class="t-teal"
           id="rect22" />
        <rect
           x="14"
           y="-28"
           width="5"
           height="28"
           class="t-dark"
           id="rect23" />
        <rect
           x="21"
           y="-29"
           width="6"
           height="29"
           class="t-dark"
           id="rect24" />
        <rect
           x="35"
           y="-30"
           width="6"
           height="30"
           class="t-teal"
           id="rect25" />
        <rect
           x="43"
           y="-27"
           width="5"
           height="27"
           class="t-teal"
           id="rect26" />
        <rect
           x="51"
           y="-30"
           width="6"
           height="30"
           class="t-dark"
           id="rect27" />
      </g>
      <g
         id="g87">
        <line
           x1="1.5400432"
           y1="35"
           x2="68.459953"
           y2="35"
           class="s-dark"
           stroke-width="3.02083"
           id="line1" />
        <line
           x1="1.4250541"
           y1="70"
           x2="68.574944"
           y2="70"
           class="s-dark"
           stroke-width="3.02602"
           id="line2" />
        <line
           x1="1.5400432"
           y1="105"
           x2="68.459953"
           y2="105"
           class="s-dark"
           stroke-width="3.02083"
           id="line3" />
        <line
           x1="-3"
           y1="142"
           x2="73"
           y2="142"
           class="s-dark"
           stroke-width="5"
           stroke-linecap="round"
           id="line4" />
        <rect
           x="0"
           y="0"
           width="70"
           height="140"
           rx="2"
           fill="none"
           class="s-dark"
           stroke-width="4"
           id="rect1" />
      </g>
    </g>
  </g>
  <g
     transform="translate(458.05628,83.833566)"
     text-anchor="middle"
     class="main-font"
     id="g95"
     style="display:inline">
    <path
       style="font-weight:bold;font-size:82px;font-family:'Segoe UI';-inkscape-font-specification:'Segoe UI, Bold';letter-spacing:1;fill:#0b2a51"
       d="M -87.748051,-38.376543 H -104.12403 V 8.5091991 h -12.97265 V -38.376543 h -16.2959 v -10.530273 h 45.644529 z m 28.066406,17.296875 q -2.282226,-1.241211 -5.325195,-1.241211 -4.124024,0 -6.446289,3.042969 -2.322266,3.002929 -2.322266,8.208008 V 8.5091991 H -86.427739 V -32.490801 h 12.652344 v 7.607422 h 0.160156 q 3.00293,-8.328125 10.810547,-8.328125 2.001953,0 3.123047,0.480469 z M -40.143559,8.5091991 H -52.795903 V -32.490801 h 12.652344 z m 45.7636719,0 H -6.3515668 V 2.623457 H -6.511723 q -4.124023,6.8867187 -12.211914,6.8867187 -5.96582,0 -9.40918,-3.3632812 -3.40332,-3.4033204 -3.40332,-9.0488282 0,-11.9316403 14.133789,-13.7734373 l 11.1308593,-1.481445 q 0,-6.726563 -7.2871093,-6.726563 -7.327148,0 -13.933594,4.364258 v -9.529297 q 2.642578,-1.361328 7.207031,-2.402344 4.604493,-1.041015 8.368165,-1.041015 17.5371089,0 17.5371089,17.49707 z m -11.8916016,-16.65625 v -2.7626951 l -7.4472653,0.9609373 q -6.166016,0.8007813 -6.166016,5.5654297 0,2.1621094 1.481445,3.56347658 1.521485,1.36132812 4.083985,1.36132812 3.563476,0 5.8056638,-2.4423828 2.2421875,-2.4824219 2.2421875,-6.2460938 z M 81.733394,8.5091991 H 69.121089 V -14.873613 q 0,-8.928711 -6.566406,-8.928711 -3.123047,0 -5.084961,2.682617 -1.961914,2.682617 -1.961914,6.686523 V 8.5091991 H 42.855464 V -15.113848 q 0,-8.688476 -6.446289,-8.688476 -3.243164,0 -5.205078,2.5625 -1.921875,2.5625 -1.921875,6.966797 V 8.5091991 H 16.629879 V -32.490801 h 12.652343 v 6.40625 h 0.160157 q 1.961914,-3.283203 5.485351,-5.325195 3.563477,-2.082031 7.767578,-2.082031 8.688477,0 11.891602,7.647461 4.68457,-7.647461 13.773437,-7.647461 13.373047,0 13.373047,16.496093 z m 30.548826,1.0009766 q -10.25,0 -16.13574,-5.7255859 -5.845703,-5.765625 -5.845703,-15.6152348 0,-10.169921 6.085937,-15.895507 6.085936,-5.765625 16.456056,-5.765625 10.20996,0 16.01562,5.765625 5.80567,5.725586 5.80567,15.174804 0,10.2099612 -6.00586,16.1357425 -5.96582,5.9257812 -16.37598,5.9257812 z m 0.32031,-33.3124997 q -4.48437,0 -6.96679,3.083008 -2.48242,3.083007 -2.48242,8.728515 0,11.81152358 9.52929,11.81152358 9.08887,0 9.08887,-12.13183558 0,-11.491211 -9.16895,-11.491211 z"
       id="text93"
       class="t-dark"
       aria-label="Trıamo" />
    <path
       id="circle93"
       class="t-teal"
       style="fill:#00a3a1"
       d="m -38.368423,-45.155781 a 8,8 0 0 1 -8,8 8,8 0 0 1 -8,-8 8,8 0 0 1 8,-8 8,8 0 0 1 8,8 z" />
    <path
       style="font-weight:bold;font-size:28px;font-family:'Segoe UI';-inkscape-font-specification:'Segoe UI, Bold';fill:#00a3a1"
       d="m -66.814457,31.07032 h -5.591797 v 16.009766 h -4.429688 V 31.07032 h -5.564453 v -3.595703 h 15.585938 z m 9.242187,5.90625 q -0.779297,-0.423828 -1.818359,-0.423828 -1.408203,0 -2.201172,1.039063 -0.792969,1.02539 -0.792969,2.802734 v 6.685547 h -4.320312 v -14 h 4.320312 v 2.597656 h 0.05469 q 1.02539,-2.84375 3.691406,-2.84375 0.683594,0 1.066406,0.164063 z m 4.306641,-6.111328 q -1.09375,0 -1.791016,-0.642578 -0.697266,-0.65625 -0.697266,-1.599609 0,-0.970704 0.697266,-1.585938 0.697266,-0.615234 1.791016,-0.615234 1.107422,0 1.791015,0.615234 0.697266,0.615234 0.697266,1.585938 0,0.984375 -0.697266,1.613281 -0.683593,0.628906 -1.791015,0.628906 z m 2.132812,16.214844 h -4.320312 v -14 h 4.320312 z m 23.009766,0 h -4.087891 V 45.07032 h -0.05469 q -1.408203,2.351563 -4.169922,2.351563 -2.03711,0 -3.212891,-1.148438 -1.162109,-1.162109 -1.162109,-3.089844 0,-4.074218 4.826172,-4.703125 l 3.800781,-0.505859 q 0,-2.296875 -2.488281,-2.296875 -2.501953,0 -4.757813,1.490234 V 33.91407 q 0.902344,-0.464844 2.460938,-0.820312 1.572265,-0.355469 2.857422,-0.355469 5.988281,0 5.988281,5.974609 z m -4.060547,-5.6875 v -0.94336 l -2.542969,0.328125 q -2.105469,0.273438 -2.105469,1.900391 0,0.738281 0.50586,1.216797 0.519531,0.464844 1.394531,0.464844 1.216797,0 1.982422,-0.833985 0.765625,-0.847656 0.765625,-2.132812 z m 21,5.6875 h -4.306641 v -7.779297 q 0,-3.253906 -2.324218,-3.253906 -1.121094,0 -1.845704,0.861328 -0.724609,0.861328 -0.724609,2.1875 v 7.984375 h -4.320312 v -14 h 4.320312 v 2.214844 h 0.05469 q 1.544921,-2.556641 4.498046,-2.556641 4.648438,0 4.648438,5.769531 z m 17.1171874,0 H 1.6132769 v -1.927735 h -0.054687 q -1.4765625,2.269532 -4.3339844,2.269532 -2.625,0 -4.2246094,-1.845703 -1.5996093,-1.859375 -1.5996093,-5.181641 0,-3.472656 1.7636718,-5.564453 1.7636719,-2.091797 4.6210938,-2.091797 2.70703125,0 3.7734375,1.941406 h 0.054687 V 26.353523 H 5.9335894 Z M 1.6953081,40.271492 v -1.052734 q 0,-1.367188 -0.7929687,-2.269532 -0.79296875,-0.902343 -2.0644531,-0.902343 -1.4355469,0 -2.2421875,1.134765 -0.8066407,1.121094 -0.8066407,3.089844 0,1.845703 0.7792969,2.84375 0.7792969,0.998047 2.1601563,0.998047 1.31249997,0 2.13281247,-1.052734 Q 1.6953081,42.00782 1.6953081,40.271492 Z m 37.8300779,6.808594 h -4.30664 v -7.984375 q 0,-3.048828 -2.242188,-3.048828 -1.066406,0 -1.736328,0.916015 -0.669922,0.916016 -0.669922,2.283203 v 7.833985 H 26.249996 V 39.01368 q 0,-2.966797 -2.201172,-2.966797 -1.107422,0 -1.777344,0.875 -0.65625,0.875 -0.65625,2.378906 v 7.779297 h -4.320312 v -14 h 4.320312 v 2.1875 h 0.05469 q 0.669921,-1.121094 1.873046,-1.81836 1.216797,-0.710937 2.652344,-0.710937 2.966797,0 4.060547,2.611328 1.599609,-2.611328 4.703125,-2.611328 4.566406,0 4.566406,5.632812 z m 10.089844,0.341797 q -3.5,0 -5.509766,-1.955078 -1.996093,-1.96875 -1.996093,-5.332032 0,-3.472656 2.078125,-5.427734 2.078125,-1.96875 5.61914,-1.96875 3.486328,0 5.46875,1.96875 1.982422,1.955078 1.982422,5.181641 0,3.486328 -2.050781,5.509765 -2.037109,2.023438 -5.591797,2.023438 z m 0.109375,-11.375 q -1.53125,0 -2.378906,1.052734 -0.847656,1.052734 -0.847656,2.980469 0,4.033203 3.253906,4.033203 3.103515,0 3.103515,-4.142578 0,-3.923828 -3.130859,-3.923828 z m 19.46875,0.929687 q -0.779297,-0.423828 -1.818359,-0.423828 -1.408203,0 -2.201172,1.039063 -0.792969,1.02539 -0.792969,2.802734 v 6.685547 h -4.320312 v -14 h 4.320312 v 2.597656 h 0.05469 q 1.02539,-2.84375 3.691406,-2.84375 0.683594,0 1.066406,0.164063 z m 14.478516,4.333985 h -9.132813 q 0.21875,3.048828 3.841797,3.048828 2.310547,0 4.060547,-1.09375 v 3.117187 q -1.941406,1.039063 -5.044922,1.039063 -3.390625,0 -5.263672,-1.873047 -1.873047,-1.886719 -1.873047,-5.25 0,-3.486328 2.023438,-5.523438 2.023437,-2.037109 4.976562,-2.037109 3.0625,0 4.730469,1.818359 1.681641,1.81836 1.681641,4.935547 z m -4.00586,-2.652344 q 0,-3.007813 -2.433593,-3.007813 -1.039063,0 -1.804688,0.861328 -0.751953,0.861329 -0.916016,2.146485 z"
       id="text94"
       class="t-teal"
       aria-label="Tri and more" />
    <path
       id="line94"
       style="display:inline;stroke:#00a3a1;stroke-width:3;stroke-linecap:round"
       class="s-teal"
       d="m -180,38 h 75" />
    <path
       id="line95"
       class="s-teal"
       style="stroke:#00a3a1;stroke-width:3;stroke-linecap:round"
       d="m 105,38 h 75" />
    <path
       style="font-size:16px;font-family:'Segoe UI';-inkscape-font-specification:'Segoe UI, Normal';letter-spacing:0.5;fill:#0b2a51"
       d="M -134.11036,72.221863 V 61.018738 h 3.1875 q 1.45313,0 2.30469,0.710937 0.85156,0.710938 0.85156,1.851563 0,0.953125 -0.51562,1.65625 -0.51563,0.703125 -1.42188,1 v 0.03125 q 1.13282,0.132812 1.8125,0.859375 0.67969,0.71875 0.67969,1.875 0,1.4375 -1.03125,2.328125 -1.03125,0.890625 -2.60156,0.890625 z m 1.3125,-10.015625 v 3.617187 h 1.34375 q 1.07813,0 1.69532,-0.515625 0.61718,-0.523437 0.61718,-1.46875 0,-1.632812 -2.14843,-1.632812 z m 0,4.796875 v 4.03125 h 1.78125 q 1.15625,0 1.78907,-0.546875 0.64062,-0.546875 0.64062,-1.5 0,-1.984375 -2.70312,-1.984375 z m 14.61719,1.539062 h -5.64844 q 0.0312,1.335938 0.71875,2.0625 0.6875,0.726563 1.89063,0.726563 1.35156,0 2.48437,-0.890625 v 1.203125 q -1.05468,0.765625 -2.78906,0.765625 -1.69531,0 -2.66406,-1.085938 -0.96875,-1.09375 -0.96875,-3.070312 0,-1.867188 1.05469,-3.039063 1.0625,-1.179687 2.63281,-1.179687 1.57031,0 2.42969,1.015625 0.85937,1.015625 0.85937,2.820312 z m -1.3125,-1.085937 q -0.008,-1.109375 -0.53906,-1.726563 -0.52344,-0.617187 -1.46094,-0.617187 -0.90625,0 -1.53906,0.648437 -0.63281,0.648438 -0.78125,1.695313 z m 9.20313,4.398437 q -0.92188,0.554688 -2.1875,0.554688 -1.71094,0 -2.76563,-1.109375 -1.04687,-1.117188 -1.04687,-2.890625 0,-1.976563 1.13281,-3.171875 1.13281,-1.203125 3.02344,-1.203125 1.05468,0 1.85937,0.390625 v 1.3125 q -0.89062,-0.625 -1.90625,-0.625 -1.22656,0 -2.01562,0.882812 -0.78125,0.875 -0.78125,2.304688 0,1.40625 0.73437,2.21875 0.74219,0.8125 1.98438,0.8125 1.04687,0 1.96875,-0.695313 z m 8.16406,0.367188 h -1.28125 v -1.25 h -0.0312 q -0.83594,1.4375 -2.46094,1.4375 -1.19531,0 -1.875,-0.632813 -0.67187,-0.632812 -0.67187,-1.679687 0,-2.242188 2.64062,-2.609375 l 2.39844,-0.335938 q 0,-2.039062 -1.64844,-2.039062 -1.44531,0 -2.60937,0.984375 v -1.3125 q 1.17968,-0.75 2.71875,-0.75 2.82031,0 2.82031,2.984375 z m -1.28125,-4.046875 -1.92969,0.265625 q -0.89062,0.125 -1.34375,0.445312 -0.45312,0.3125 -0.45312,1.117188 0,0.585937 0.41406,0.960937 0.42187,0.367188 1.11719,0.367188 0.95312,0 1.57031,-0.664063 0.625,-0.671875 0.625,-1.695312 z m 10.664062,4.046875 h -1.28125 v -1.265625 h -0.03125 q -0.796875,1.453125 -2.46875,1.453125 -2.859375,0 -2.859375,-3.40625 v -4.78125 h 1.273437 v 4.578125 q 0,2.53125 1.9375,2.53125 0.9375,0 1.539063,-0.6875 0.609375,-0.695313 0.609375,-1.8125 v -4.609375 h 1.28125 z m 2.601562,-0.289063 v -1.375 q 1.046875,0.773438 2.304688,0.773438 1.6875,0 1.6875,-1.125 0,-0.320313 -0.148438,-0.539063 -0.140625,-0.226562 -0.390625,-0.398437 -0.242187,-0.171875 -0.578125,-0.304688 -0.328125,-0.140625 -0.710937,-0.289062 -0.53125,-0.210938 -0.9375,-0.421875 -0.398438,-0.21875 -0.671875,-0.484375 -0.265625,-0.273438 -0.40625,-0.617188 -0.132813,-0.34375 -0.132813,-0.804687 0,-0.5625 0.257813,-0.992188 0.257812,-0.4375 0.6875,-0.726562 0.429687,-0.296875 0.976562,-0.445313 0.554688,-0.148437 1.140625,-0.148437 1.039063,0 1.859375,0.359375 v 1.296875 q -0.882812,-0.578125 -2.03125,-0.578125 -0.359375,0 -0.648437,0.08594 -0.289063,0.07813 -0.5,0.226563 -0.203125,0.148437 -0.320313,0.359375 -0.109375,0.203125 -0.109375,0.453125 0,0.3125 0.109375,0.523437 0.117188,0.210938 0.335938,0.375 0.21875,0.164063 0.53125,0.296875 0.3125,0.132813 0.710937,0.289063 0.53125,0.203125 0.953125,0.421875 0.421875,0.210937 0.71875,0.484375 0.296875,0.265625 0.453125,0.617187 0.164063,0.351563 0.164063,0.835938 0,0.59375 -0.265625,1.03125 -0.257813,0.4375 -0.695313,0.726562 -0.4375,0.289063 -1.007812,0.429688 -0.570313,0.140625 -1.195313,0.140625 -1.234375,0 -2.140625,-0.476563 z m 14.203125,-3.390625 h -5.648437 q 0.03125,1.335938 0.71875,2.0625 0.6875,0.726563 1.890625,0.726563 1.351562,0 2.484375,-0.890625 v 1.203125 q -1.054688,0.765625 -2.789063,0.765625 -1.695312,0 -2.664062,-1.085938 -0.96875,-1.09375 -0.96875,-3.070312 0,-1.867188 1.054687,-3.039063 1.0625,-1.179687 2.632813,-1.179687 1.570312,0 2.429687,1.015625 0.859375,1.015625 0.859375,2.820312 z m -1.3125,-1.085937 q -0.0078,-1.109375 -0.539062,-1.726563 -0.523438,-0.617187 -1.460938,-0.617187 -0.90625,0 -1.539062,0.648437 -0.632813,0.648438 -0.78125,1.695313 z m 13.367188,-3.5 q 0,-0.515625 -0.164063,-0.898438 -0.15625,-0.382812 -0.4375,-0.632812 -0.273437,-0.257813 -0.648437,-0.382813 -0.375,-0.125 -0.8125,-0.125 -0.375,0 -0.734375,0.101563 -0.359375,0.101562 -0.703125,0.28125 -0.335938,0.179687 -0.65625,0.429687 -0.3125,0.25 -0.585938,0.554688 v -1.375 q 0.539063,-0.523438 1.203125,-0.796875 0.671875,-0.28125 1.632813,-0.28125 0.6875,0 1.273437,0.203125 0.585938,0.195312 1.015625,0.578125 0.429688,0.382812 0.671875,0.945312 0.25,0.5625 0.25,1.289063 0,0.664062 -0.15625,1.203125 -0.148437,0.539062 -0.460937,1.015625 -0.304688,0.476562 -0.773438,0.914062 -0.46875,0.4375 -1.101562,0.890625 -0.789063,0.5625 -1.304688,0.960938 -0.507812,0.398437 -0.8125,0.75 -0.296875,0.34375 -0.421875,0.695312 -0.117187,0.34375 -0.117187,0.796875 h 5.578125 v 1.148438 h -6.914063 v -0.554688 q 0,-0.71875 0.15625,-1.265625 0.15625,-0.546875 0.515625,-1.039062 0.359375,-0.492188 0.9375,-0.984375 0.585938,-0.492188 1.429688,-1.109375 0.609375,-0.4375 1.015625,-0.835938 0.414062,-0.398437 0.664062,-0.796875 0.25,-0.398437 0.351563,-0.804687 0.109375,-0.414063 0.109375,-0.875 z m 11.0625,2.617187 q 0,1.40625 -0.257813,2.492188 -0.25,1.085937 -0.734375,1.835937 -0.476562,0.742188 -1.179687,1.132813 -0.695313,0.382812 -1.585938,0.382812 -0.84375,0 -1.507812,-0.367187 -0.65625,-0.375 -1.109375,-1.085938 -0.453125,-0.710937 -0.6875,-1.742187 -0.234375,-1.039063 -0.234375,-2.375 0,-1.46875 0.242187,-2.59375 0.25,-1.125 0.726563,-1.882813 0.476562,-0.765625 1.179687,-1.148437 0.710938,-0.390625 1.625,-0.390625 3.523438,0 3.523438,5.742187 z m -1.3125,0.125 q 0,-4.78125 -2.273438,-4.78125 -2.398437,0 -2.398437,4.867188 0,4.539062 2.351562,4.539062 2.320313,0 2.320313,-4.625 z m 8.125,5.523438 h -1.28125 v -9.679688 q -0.148438,0.148438 -0.4375,0.34375 -0.28125,0.1875 -0.640625,0.375 -0.351563,0.1875 -0.75,0.351563 -0.390625,0.164062 -0.765625,0.257812 v -1.296875 q 0.421875,-0.117187 0.890625,-0.3125 0.476562,-0.203125 0.929687,-0.445312 0.460938,-0.25 0.867188,-0.515625 0.40625,-0.273438 0.703125,-0.53125 h 0.484375 z m 12.625,-4.140625 h -3.15625 v 3.148437 h -1.039063 v -3.148437 h -3.148437 v -1.046875 h 3.148437 v -3.148438 h 1.039063 v 3.148438 h 3.15625 z m 9.78125,2.984375 h -0.03125 v 1.15625 h -1.28125 v -11.84375 h 1.28125 v 5.25 h 0.03125 q 0.945312,-1.59375 2.765625,-1.59375 1.539062,0 2.40625,1.078125 0.875,1.070312 0.875,2.875 0,2.007812 -0.976563,3.21875 -0.976562,1.203125 -2.671875,1.203125 -1.585937,0 -2.398437,-1.34375 z m -0.03125,-3.226563 v 1.117188 q 0,0.992187 0.640625,1.6875 0.648437,0.6875 1.640625,0.6875 1.164062,0 1.820312,-0.890625 0.664063,-0.890625 0.664063,-2.476563 0,-1.335937 -0.617188,-2.09375 -0.617187,-0.757812 -1.671875,-0.757812 -1.117187,0 -1.796875,0.78125 -0.679687,0.773437 -0.679687,1.945312 z m 11.96875,4.570313 q -1.773438,0 -2.835938,-1.117188 -1.054687,-1.125 -1.054687,-2.976562 0,-2.015625 1.101562,-3.148438 1.101563,-1.132812 2.976563,-1.132812 1.789062,0 2.789062,1.101562 1.0078125,1.101563 1.0078125,3.054688 0,1.914062 -1.0859375,3.070312 -1.078125,1.148438 -2.898437,1.148438 z m 0.09375,-7.296875 q -1.234375,0 -1.953125,0.84375 -0.71875,0.835937 -0.71875,2.3125 0,1.421875 0.726562,2.242187 0.726563,0.820313 1.945313,0.820313 1.242187,0 1.9062495,-0.804688 0.671875,-0.804687 0.671875,-2.289062 0,-1.5 -0.671875,-2.3125 -0.6640625,-0.8125 -1.9062495,-0.8125 z m 9.7812495,7.296875 q -1.7734375,0 -2.8359375,-1.117188 -1.0546875,-1.125 -1.0546875,-2.976562 0,-2.015625 1.1015625,-3.148438 1.1015625,-1.132812 2.9765625,-1.132812 1.78906253,0 2.7890625,1.101562 1.0078125,1.101563 1.0078125,3.054688 0,1.914062 -1.0859375,3.070312 -1.07812497,1.148438 -2.8984375,1.148438 z m 0.09375,-7.296875 q -1.234375,0 -1.953125,0.84375 -0.71875,0.835937 -0.71875,2.3125 0,1.421875 0.7265625,2.242187 0.7265625,0.820313 1.9453125,0.820313 1.24218753,0 1.90625003,-0.804688 0.671875,-0.804687 0.671875,-2.289062 0,-1.5 -0.671875,-2.3125 -0.6640625,-0.8125 -1.90625003,-0.8125 z M 11.381832,72.221863 H 9.5849565 l -3.53125,-3.84375 h -0.03125 v 3.84375 h -1.28125 v -11.84375 h 1.28125 v 7.507812 h 0.03125 l 3.359375,-3.664062 H 11.092769 L 7.3818315,68.081238 Z M 12.709957,71.9328 v -1.375 q 1.046875,0.773438 2.304687,0.773438 1.6875,0 1.6875,-1.125 0,-0.320313 -0.148437,-0.539063 -0.140625,-0.226562 -0.390625,-0.398437 -0.242188,-0.171875 -0.578125,-0.304688 -0.328125,-0.140625 -0.710938,-0.289062 -0.53125,-0.210938 -0.9375,-0.421875 -0.398437,-0.21875 -0.671875,-0.484375 -0.265625,-0.273438 -0.40625,-0.617188 -0.132812,-0.34375 -0.132812,-0.804687 0,-0.5625 0.257812,-0.992188 0.257813,-0.4375 0.6875,-0.726562 0.429688,-0.296875 0.976563,-0.445313 0.554687,-0.148437 1.140625,-0.148437 1.039062,0 1.859375,0.359375 v 1.296875 q -0.882813,-0.578125 -2.03125,-0.578125 -0.359375,0 -0.648438,0.08594 -0.289062,0.07813 -0.5,0.226563 -0.203125,0.148437 -0.320312,0.359375 -0.109375,0.203125 -0.109375,0.453125 0,0.3125 0.109375,0.523437 0.117187,0.210938 0.335937,0.375 0.21875,0.164063 0.53125,0.296875 0.3125,0.132813 0.710938,0.289063 0.53125,0.203125 0.953125,0.421875 0.421875,0.210937 0.71875,0.484375 0.296875,0.265625 0.453125,0.617187 0.164062,0.351563 0.164062,0.835938 0,0.59375 -0.265625,1.03125 -0.257812,0.4375 -0.695312,0.726562 -0.4375,0.289063 -1.007813,0.429688 -0.570312,0.140625 -1.195312,0.140625 -1.234375,0 -2.140625,-0.476563 z m 19.296875,0.289063 h -1.28125 v -4.5625 q 0,-2.546875 -1.859375,-2.546875 -0.960938,0 -1.59375,0.726562 -0.625,0.71875 -0.625,1.820313 v 4.5625 h -1.28125 v -8 h 1.28125 v 1.328125 h 0.03125 q 0.90625,-1.515625 2.625,-1.515625 1.3125,0 2.007812,0.851562 0.695313,0.84375 0.695313,2.445313 z m 9.34375,-3.679688 h -5.648438 q 0.03125,1.335938 0.71875,2.0625 0.6875,0.726563 1.890625,0.726563 1.351563,0 2.484375,-0.890625 v 1.203125 q -1.054687,0.765625 -2.789062,0.765625 -1.695313,0 -2.664063,-1.085938 -0.96875,-1.09375 -0.96875,-3.070312 0,-1.867188 1.054688,-3.039063 1.0625,-1.179687 2.632812,-1.179687 1.570313,0 2.429688,1.015625 0.859375,1.015625 0.859375,2.820312 z m -1.3125,-1.085937 q -0.0078,-1.109375 -0.539063,-1.726563 -0.523437,-0.617187 -1.460937,-0.617187 -0.90625,0 -1.539063,0.648437 -0.632812,0.648438 -0.78125,1.695313 z m 10.179687,1.085937 h -5.648437 q 0.03125,1.335938 0.71875,2.0625 0.6875,0.726563 1.890625,0.726563 1.351562,0 2.484375,-0.890625 v 1.203125 q -1.054688,0.765625 -2.789063,0.765625 -1.695312,0 -2.664062,-1.085938 -0.96875,-1.09375 -0.96875,-3.070312 0,-1.867188 1.054687,-3.039063 1.0625,-1.179687 2.632813,-1.179687 1.570312,0 2.429687,1.015625 0.859375,1.015625 0.859375,2.820312 z m -1.3125,-1.085937 q -0.0078,-1.109375 -0.539062,-1.726563 -0.523438,-0.617187 -1.460938,-0.617187 -0.90625,0 -1.539062,0.648437 -0.632813,0.648438 -0.78125,1.695313 z m 10.578125,4.765625 h -1.28125 v -1.359375 h -0.03125 q -0.890625,1.546875 -2.75,1.546875 -1.507812,0 -2.414062,-1.070313 -0.898438,-1.078125 -0.898438,-2.929687 0,-1.984375 1,-3.179688 1,-1.195312 2.664063,-1.195312 1.648437,0 2.398437,1.296875 h 0.03125 v -4.953125 h 1.28125 z m -1.28125,-3.617188 v -1.179687 q 0,-0.96875 -0.640625,-1.640625 -0.640625,-0.671875 -1.625,-0.671875 -1.171875,0 -1.84375,0.859375 -0.671875,0.859375 -0.671875,2.375 0,1.382812 0.640625,2.1875 0.648438,0.796875 1.734375,0.796875 1.070313,0 1.734375,-0.773438 0.671875,-0.773437 0.671875,-1.953125 z m 20.617188,3.617188 h -1.28125 v -4.59375 q 0,-1.328125 -0.414063,-1.921875 -0.40625,-0.59375 -1.375,-0.59375 -0.820312,0 -1.398437,0.75 -0.570313,0.75 -0.570313,1.796875 v 4.5625 h -1.28125 v -4.75 q 0,-2.359375 -1.820312,-2.359375 -0.84375,0 -1.390625,0.710937 -0.546875,0.703125 -0.546875,1.835938 v 4.5625 h -1.28125 v -8 h 1.28125 v 1.265625 h 0.03125 q 0.851562,-1.453125 2.484375,-1.453125 0.820312,0 1.429687,0.460937 0.609375,0.453125 0.835938,1.195313 0.890625,-1.65625 2.65625,-1.65625 2.640625,0 2.640625,3.257812 z m 9.351562,-3.679688 h -5.648437 q 0.03125,1.335938 0.71875,2.0625 0.6875,0.726563 1.890625,0.726563 1.351562,0 2.484375,-0.890625 v 1.203125 q -1.054688,0.765625 -2.789063,0.765625 -1.695312,0 -2.664062,-1.085938 -0.96875,-1.09375 -0.96875,-3.070312 0,-1.867188 1.054687,-3.039063 1.0625,-1.179687 2.632813,-1.179687 1.570312,0 2.429687,1.015625 0.859375,1.015625 0.859375,2.820312 z m -1.3125,-1.085937 q -0.0078,-1.109375 -0.539062,-1.726563 -0.523438,-0.617187 -1.460938,-0.617187 -0.90625,0 -1.539062,0.648437 -0.632813,0.648438 -0.78125,1.695313 z m 7.460938,4.6875 q -0.453125,0.25 -1.195313,0.25 -2.101562,0 -2.101562,-2.34375 v -4.734375 h -1.375 v -1.09375 h 1.375 v -1.953125 l 1.28125,-0.414063 v 2.367188 h 2.015625 v 1.09375 h -2.015625 v 4.507812 q 0,0.804688 0.273437,1.148438 0.273438,0.34375 0.90625,0.34375 0.484375,0 0.835938,-0.265625 z m 7.937498,0.07813 h -1.28125 v -1.25 h -0.0312 q -0.83594,1.4375 -2.460936,1.4375 -1.195312,0 -1.875,-0.632813 -0.671875,-0.632812 -0.671875,-1.679687 0,-2.242188 2.640625,-2.609375 l 2.398436,-0.335938 q 0,-2.039062 -1.648436,-2.039062 -1.445312,0 -2.609375,0.984375 v -1.3125 q 1.179688,-0.75 2.71875,-0.75 2.820311,0 2.820311,2.984375 z m -1.28125,-4.046875 -1.929686,0.265625 q -0.890625,0.125 -1.34375,0.445312 -0.453125,0.3125 -0.453125,1.117188 0,0.585937 0.414063,0.960937 0.421875,0.367188 1.117187,0.367188 0.953125,0 1.570311,-0.664063 0.625,-0.671875 0.625,-1.695312 z m 11.02344,4.046875 h -1.28125 v -1.359375 h -0.0312 q -0.89063,1.546875 -2.75,1.546875 -1.50781,0 -2.41406,-1.070313 -0.89844,-1.078125 -0.89844,-2.929687 0,-1.984375 1,-3.179688 1,-1.195312 2.66406,-1.195312 1.64844,0 2.39844,1.296875 h 0.0312 v -4.953125 h 1.28125 z m -1.28125,-3.617188 v -1.179687 q 0,-0.96875 -0.64063,-1.640625 -0.64062,-0.671875 -1.625,-0.671875 -1.17187,0 -1.84375,0.859375 -0.67187,0.859375 -0.67187,2.375 0,1.382812 0.64062,2.1875 0.64844,0.796875 1.73438,0.796875 1.07031,0 1.73437,-0.773438 0.67188,-0.773437 0.67188,-1.953125 z m 10.10156,3.617188 h -1.28125 v -1.25 h -0.0312 q -0.83594,1.4375 -2.46094,1.4375 -1.19531,0 -1.875,-0.632813 -0.67187,-0.632812 -0.67187,-1.679687 0,-2.242188 2.64062,-2.609375 l 2.39844,-0.335938 q 0,-2.039062 -1.64844,-2.039062 -1.44531,0 -2.60937,0.984375 v -1.3125 q 1.17969,-0.75 2.71875,-0.75 2.82031,0 2.82031,2.984375 z m -1.28125,-4.046875 -1.92969,0.265625 q -0.89062,0.125 -1.34375,0.445312 -0.45312,0.3125 -0.45312,1.117188 0,0.585937 0.41406,0.960937 0.42188,0.367188 1.11719,0.367188 0.95312,0 1.57031,-0.664063 0.625,-0.671875 0.625,-1.695312 z m 7.90625,3.96875 q -0.45312,0.25 -1.19531,0.25 -2.10156,0 -2.10156,-2.34375 v -4.734375 h -1.375 v -1.09375 h 1.375 v -1.953125 l 1.28125,-0.414063 v 2.367188 h 2.01562 v 1.09375 h -2.01562 v 4.507812 q 0,0.804688 0.27343,1.148438 0.27344,0.34375 0.90625,0.34375 0.48438,0 0.83594,-0.265625 z m 7.9375,0.07813 h -1.28125 v -1.25 h -0.0312 q -0.83594,1.4375 -2.46094,1.4375 -1.19531,0 -1.875,-0.632813 -0.67187,-0.632812 -0.67187,-1.679687 0,-2.242188 2.64062,-2.609375 l 2.39844,-0.335938 q 0,-2.039062 -1.64844,-2.039062 -1.44531,0 -2.60937,0.984375 v -1.3125 q 1.17969,-0.75 2.71875,-0.75 2.82031,0 2.82031,2.984375 z m -1.28125,-4.046875 -1.92969,0.265625 q -0.89062,0.125 -1.34375,0.445312 -0.45312,0.3125 -0.45312,1.117188 0,0.585937 0.41406,0.960937 0.42188,0.367188 1.11719,0.367188 0.95312,0 1.57031,-0.664063 0.625,-0.671875 0.625,-1.695312 z"
       id="text95"
       class="t-dark"
       aria-label="Because 201+ books need metadata" />
  </g>
  <g
     transform="translate(458.05628,83.833566)"
     text-anchor="middle"
     class="main-font"
     id="g84"
     style="display:none">
    <text
       y="8.5091991"
       font-size="82px"
       font-weight="800"
       letter-spacing="1"
       class="t-dark"
       id="text82"
       x="1.4565387"
       style="font-weight:800;font-size:82px;letter-spacing:1;fill:#0b2a51"><tspan
         style="font-style:normal;font-variant:normal;font-weight:bold;font-stretch:normal;font-size:82px;font-family:'Segoe UI';-inkscape-font-specification:'Segoe UI, Bold';font-variant-ligatures:normal;font-variant-caps:normal;font-variant-numeric:normal;font-variant-east-asian:normal"
         id="tspan90">Trıamo</tspan></text>
    <circle
       cx="-46.368423"
       cy="-45.155781"
       r="8"
       class="t-teal"
       id="circle82" />
    <text
       y="47.080086"
       font-size="28px"
       font-weight="700"
       class="t-teal"
       id="text83"
       style="font-weight:700;font-size:28px;fill:#00a3a1"
       x="0.79980034"><tspan
         style="font-style:normal;font-variant:normal;font-weight:bold;font-stretch:normal;font-size:28px;font-family:'Segoe UI';-inkscape-font-specification:'Segoe UI, Bold';font-variant-ligatures:normal;font-variant-caps:normal;font-variant-numeric:normal;font-variant-east-asian:normal"
         id="tspan91">Tri and more</tspan></text>
    <line
       x1="-180"
       y1="38"
       x2="-105"
       y2="38"
       class="s-teal"
       stroke-width="3"
       stroke-linecap="round"
       id="line83"
       style="display:inline" />
    <line
       x1="105"
       y1="38"
       x2="180"
       y2="38"
       class="s-teal"
       stroke-width="3"
       stroke-linecap="round"
       id="line84" />
    <text
       y="72.221863"
       font-size="16px"
       font-weight="500"
       letter-spacing="0.5"
       class="t-dark"
       id="text84"
       x="0.45995653"
       style="font-weight:500;font-size:16px;letter-spacing:0.5;display:inline;fill:#0b2a51"><tspan
         style="font-style:normal;font-variant:normal;font-weight:normal;font-stretch:normal;font-size:16px;font-family:'Segoe UI';-inkscape-font-specification:'Segoe UI, Normal';font-variant-ligatures:normal;font-variant-caps:normal;font-variant-numeric:normal;font-variant-east-asian:normal"
         id="tspan92">Because 201+ books need metadata</tspan></text>
  </g>
</svg>
